<?xml version="1.0" encoding="utf-8"?>
<!-- Generator: Adobe Illustrator 25.4.1, SVG Export Plug-In . SVG Version: 6.00 Build 0)  -->
<svg version="1.1" id="Layer_1" xmlns="http://www.w3.org/2000/svg" xmlns:xlink="http://www.w3.org/1999/xlink" x="0px" y="0px"
	 viewBox="0 0 125 111.15" style="enable-background:new 0 0 125 111.15;" xml:space="preserve">
<style type="text/css">
	.st0{fill:#4e5d6c;}
</style>
<g>
	<path class="st0" d="M74.73,36.18v19.39c15.1,0,27.85,8.29,27.85,18.09c0,9.8-12.75,18.08-27.85,18.08
		c-28.35,0-52.3-16.56-52.3-36.17c0-5.47,1.92-10.68,5.22-15.38c1.76,19.4,22.18,34.78,47.08,34.78V55.58
		c-15.1,0-27.85-8.29-27.85-18.09c0-9.17,11.16-17,24.95-17.97c0.96-0.04,1.92-0.11,2.9-0.11V0C35.18,0,3.01,24.93,3.01,55.58
		s32.17,55.58,71.71,55.58c26.06,0,47.26-16.81,47.26-37.49C121.99,53,100.78,36.18,74.73,36.18z"/>
</g>
</svg>
